<?xml version="1.0" encoding="utf-8"?>
<!-- Generator: Adobe Illustrator 21.0.0, SVG Export Plug-In . SVG Version: 6.00 Build 0)  -->
<svg version="1.1" id="Layer_1" xmlns="http://www.w3.org/2000/svg" xmlns:xlink="http://www.w3.org/1999/xlink" x="0px" y="0px"
	 viewBox="0 0 240.9 56.7" style="enable-background:new 0 0 240.9 56.7;" xml:space="preserve">
<style type="text/css">
	.st0{fill:#FFFFFF;}
	.st1{fill:#00AEEF;}
	.st2{fill:url(#SVGID_1_);}
	.st3{fill:url(#SVGID_2_);}
</style>
<g>
	<g>
		<g>
			<path d="M217.9,12.7h-10.6v3.5h10.4c1.1,0,2,0.9,2,2V34h3.5V18C223.2,15.1,220.8,12.7,217.9,12.7z"/>
			<path d="M164.8,12.7h-10.6v3.5h10.4c1.1,0,2,0.9,2,2v1.3c0,1.1-0.9,2-2,2l-10.4,0V34h10.6c2.9,0,5.3-2.4,5.3-5.3v-1.8
				c0-1.4-0.5-2.6-1.4-3.5c0.8-0.9,1.4-2.2,1.4-3.5V18C170.1,15.1,167.7,12.7,164.8,12.7z M166.5,28.4c0,1.1-0.9,2-2,2h-6.8v-5.3
				h6.8c1.1,0,2,0.9,2,2V28.4z"/>
			<rect x="207.3" y="21.6" width="3.5" height="12.4"/>
			<path d="M235.6,12.7H225v3.5h10.4c1.1,0,2,0.9,2,2v10.1c0,1.1-0.9,2-2,2h-6.8v-8.9H225V34h10.6c2.9,0,5.3-2.4,5.3-5.3V18
				C240.9,15.1,238.6,12.7,235.6,12.7z"/>
			<path d="M200.2,12.7h-5.3c-2.3,0-4.3,1.5-5,3.5h10.1c1.1,0,2,0.9,2,2v3.3h-12.4V34h3.5v-8.9h8.9V34h3.5V18
				C205.5,15.1,203.1,12.7,200.2,12.7z"/>
			<path d="M182.5,25.1c2.9,0,5.3-2.4,5.3-5.3V18c0-2.9-2.4-5.3-5.3-5.3h-10.6v3.5h10.4c1.1,0,2,0.9,2,2v1.3c0,1.1-0.9,2-2,2
				l-10.4,0V34h3.5v-8.9h1.5c0.7,0,1.3,0.3,1.6,0.8l5.7,8h4.3l-6.3-8.9H182.5z"/>
		</g>
		<g>
			<path class="st1" d="M63.8,16.2h12.4c2,0,3.5-1.6,3.5-3.5v0H63.8V16.2z"/>
			<path class="st1" d="M63.8,34h3.5v-8.9h8.9c2,0,3.5-1.6,3.5-3.5H63.8V34z"/>
			<path class="st1" d="M99.2,16.2L99.2,16.2l12.4,0c2,0,3.5-1.6,3.5-3.5v0h-12.4C100.8,12.7,99.2,14.3,99.2,16.2z"/>
			<polygon class="st1" points="147,12.7 147,21.6 138.2,21.6 138.2,12.7 134.6,12.7 134.6,34 138.2,34 138.2,25.1 147,25.1 147,34 
				150.6,34 150.6,12.7 			"/>
			<path class="st1" d="M111.6,25.1c2,0,3.5-1.6,3.5-3.5H99.2l0,0h0l0,8.9c0,2,1.6,3.5,3.5,3.5h0h12.4v-3.5h-11.5
				c-0.5,0-0.9-0.4-0.9-0.9v-4.4H111.6z"/>
			<path class="st1" d="M92.1,25.1c2.9,0,5.3-2.4,5.3-5.3V18c0-2.9-2.4-5.3-5.3-5.3H81.5v3.5h10.4c1.1,0,2,0.9,2,2v1.3
				c0,1.1-0.9,2-2,2H81.5V34H85v-8.9h1.5c0.7,0,1.3,0.3,1.6,0.8l5.7,8h4.3l-6.3-8.9H92.1z"/>
			<path class="st1" d="M117.1,16.2h12.3c2,0,3.5-1.6,3.5-3.5h-11.3C119.4,12.7,117.5,14.2,117.1,16.2z"/>
			<path class="st1" d="M128.3,21.6h-11.2c0.5,2,2.3,3.5,4.5,3.5h6.4c0.8,0,1.4,0.6,1.4,1.4V29c0,0.8-0.6,1.4-1.4,1.4h-7.4
				c-2,0-3.5,1.6-3.5,3.5h11.3c2.5,0,4.6-2.1,4.6-4.6v-3.2C132.9,23.6,130.8,21.6,128.3,21.6z"/>
		</g>
	</g>
	<g id="XMLID_1_">
		<g id="XMLID_2_">
			<g>
				<g id="XMLID_6_">
					
						<radialGradient id="SVGID_1_" cx="-167.7382" cy="236.7825" r="235.4124" gradientTransform="matrix(-0.217 9.097510e-02 -8.187759e-02 -0.1953 36.0625 79.0869)" gradientUnits="userSpaceOnUse">
						<stop  offset="0.13" style="stop-color:#23BAED"/>
						<stop  offset="0.21" style="stop-color:#1CADE4"/>
						<stop  offset="0.2251" style="stop-color:#1BAAE2"/>
						<stop  offset="0.4021" style="stop-color:#1589C9"/>
						<stop  offset="0.5548" style="stop-color:#1373B9"/>
						<stop  offset="0.6758" style="stop-color:#1167B0"/>
						<stop  offset="0.75" style="stop-color:#1062AD"/>
						<stop  offset="0.8002" style="stop-color:#1064AE"/>
						<stop  offset="0.8406" style="stop-color:#1169B2"/>
						<stop  offset="0.8775" style="stop-color:#1372B8"/>
						<stop  offset="0.9124" style="stop-color:#167EC1"/>
						<stop  offset="0.9459" style="stop-color:#1890CE"/>
						<stop  offset="0.9778" style="stop-color:#1DA7DF"/>
						<stop  offset="1" style="stop-color:#23BAED"/>
					</radialGradient>
					<path class="st2" d="M54.8,25.9c-0.6,0.2-0.8,0.8-0.9,1.6l-0.8,4.5l-0.8-4.5c-0.1-0.8-0.3-1.4-0.9-1.6
						c-0.5-0.1-0.9,0.1-1.3,0.7l-1.6,2.2L49,26c0.1-0.6,0-1.1-0.4-1.3c-0.5-0.3-1-0.1-1.8,0.5l-7.7,6.6l6.6-7.7
						c0.5-0.6,0.9-1.2,0.5-1.8c-0.3-0.4-0.7-0.5-1.3-0.4l-2.8,0.4l2.2-1.6c0.5-0.4,0.8-0.7,0.7-1.2c-0.1-0.6-0.8-0.8-1.6-1L39,17.7
						l4.5-0.8c0.8-0.1,1.4-0.3,1.6-0.9c0.1-0.5-0.1-0.9-0.7-1.3l-2.2-1.6l2.8,0.4c0.7,0.1,1.1,0,1.3-0.4c0.3-0.5,0.1-1.1-0.5-1.8
						l-6.6-7.7l7.7,6.6c0.7,0.6,1.3,0.8,1.8,0.5c0.4-0.2,0.5-0.6,0.4-1.3l-0.1-0.6C43.7,3.4,36.4,0,28.3,0C12.7,0,0,12.7,0,28.3
						s12.7,28.3,28.3,28.3C44,56.7,56.7,44,56.7,28.3c0-0.3,0-0.6,0-0.9l-0.5-0.9C55.7,26,55.3,25.7,54.8,25.9z"/>
				</g>
			</g>
		</g>
	</g>
</g>
</svg>
