<?xml version="1.0" encoding="utf-8"?>
<!-- Generator: Adobe Illustrator 23.0.0, SVG Export Plug-In . SVG Version: 6.00 Build 0)  -->
<svg version="1.1" id="Layer_1" xmlns="http://www.w3.org/2000/svg" xmlns:xlink="http://www.w3.org/1999/xlink" x="0px" y="0px"
	 viewBox="0 0 100.09 92.13" style="enable-background:new 0 0 100.09 92.13;" xml:space="preserve">
<style type="text/css">
	.st0{fill:#010101;}
</style>
<g>
	<rect y="42.91" class="st0" width="15.66" height="3.2"/>
	<rect x="73.36" y="42.91" class="st0" width="15.66" height="3.2"/>
	<rect x="4.91" y="61.25" transform="matrix(0.866 -0.5 0.5 0.866 -29.7147 14.7909)" class="st0" width="15.66" height="3.2"/>
	<rect x="68.44" y="24.57" transform="matrix(0.866 -0.5 0.5 0.866 -2.8665 41.6399)" class="st0" width="15.66" height="3.2"/>
	
		<rect x="55.02" y="11.15" transform="matrix(0.5001 -0.866 0.866 0.5001 20.3813 60.7944)" class="st0" width="15.66" height="3.2"/>
	<rect x="42.91" y="0" class="st0" width="3.2" height="15.66"/>
	<rect x="24.57" y="4.91" transform="matrix(0.866 -0.5 0.5 0.866 -2.866 14.7919)" class="st0" width="3.2" height="15.66"/>
	<rect x="74.67" y="55.02" transform="matrix(0.5 -0.866 0.866 0.5 -16.2928 97.4723)" class="st0" width="3.2" height="15.66"/>
	<rect x="11.15" y="18.34" transform="matrix(0.5 -0.866 0.866 0.5 -16.2909 24.1214)" class="st0" width="3.2" height="15.66"/>
	<path class="st0" d="M37.09,34.13c-0.45-0.11-0.91-0.01-1.27,0.28c-0.36,0.28-0.56,0.7-0.56,1.16v0.25c0,0.67,0.46,1.25,1.14,1.43
		c1.06,0.29,1.8,1.26,1.8,2.36c0,1.1-0.74,2.07-1.8,2.36c-0.68,0.19-1.14,0.77-1.14,1.44v0.25c0,0.45,0.21,0.88,0.56,1.16
		c0.27,0.21,0.59,0.32,0.92,0.32c0.12,0,0.24-0.01,0.36-0.04c2.53-0.62,4.3-2.87,4.3-5.48C41.39,37.01,39.62,34.75,37.09,34.13z"/>
	<path class="st0" d="M53.38,34.41c-0.36-0.28-0.82-0.38-1.27-0.28c-2.53,0.62-4.3,2.87-4.3,5.48c0,2.61,1.77,4.87,4.3,5.48
		c0.12,0.03,0.24,0.04,0.36,0.04c0.33,0,0.65-0.11,0.92-0.32c0.36-0.28,0.56-0.7,0.56-1.16v-0.25c0-0.67-0.46-1.25-1.15-1.44
		c-1.06-0.29-1.8-1.26-1.8-2.36c0-1.1,0.74-2.07,1.8-2.36c0.68-0.19,1.15-0.77,1.15-1.43v-0.25C53.95,35.11,53.74,34.69,53.38,34.41
		z"/>
	<path class="st0" d="M68.74,46.09c0-1.95-0.79-3.79-2.19-5.13c0.64-1.01,0.97-2.17,0.97-3.38c0-2.67-1.63-5.01-4.09-5.95
		c0-0.12,0.01-0.23,0.01-0.35c0-4.33-3.52-7.85-7.85-7.85c-0.24,0-0.48,0.01-0.71,0.03c-1.14-1.95-3.22-3.16-5.5-3.16
		c-1.83,0-3.58,0.8-4.78,2.16c-1.2-1.36-2.95-2.16-4.78-2.16c-2.28,0-4.36,1.2-5.5,3.15c-0.24-0.02-0.48-0.03-0.71-0.03
		c-4.33,0-7.85,3.52-7.85,7.85c0,0.12,0,0.23,0.01,0.35c-2.46,0.94-4.09,3.29-4.09,5.95c0,1.21,0.33,2.37,0.97,3.38
		c-1.4,1.34-2.19,3.19-2.19,5.13c0,1.97,0.81,3.84,2.24,5.18c-0.24,0.46-0.31,1-0.2,1.53c1.04,5.1,3.85,9.72,7.92,13.02
		c2.16,1.75,3.4,4.33,3.4,7.08v3.43c-0.64,0.21-1.1,0.81-1.1,1.52c0,0.71,0.46,1.31,1.1,1.52v0.81c-0.64,0.21-1.1,0.81-1.1,1.52
		c0,0.72,0.47,1.32,1.12,1.53c0.21,2.51,2.33,4.49,4.89,4.49h0.24v1.34c0,1.69,1.38,3.07,3.07,3.07h5.15c1.69,0,3.07-1.38,3.07-3.07
		v-1.34h0.24c2.56,0,4.67-1.98,4.89-4.49c0.65-0.2,1.12-0.81,1.12-1.53c0-0.71-0.46-1.31-1.1-1.52v-0.81
		c0.64-0.21,1.1-0.81,1.1-1.52c0-0.71-0.46-1.31-1.1-1.52V72.9c0-2.75,1.24-5.33,3.4-7.08c4.07-3.3,6.88-7.92,7.92-13.04
		c0.11-0.52,0.03-1.05-0.21-1.51C67.93,49.93,68.74,48.07,68.74,46.09z M47.05,87.71v1.22h-4.9v-1.22H47.05z M52.12,83.3
		c-0.21,0.7-0.87,1.22-1.64,1.22H38.71c-0.77,0-1.43-0.51-1.64-1.22H52.12z M52.19,79.45v0.65H37v-0.65H52.19z M52.19,75.6v0.65H37
		V75.6H52.19z M36.99,72.41c-0.14-3.55-1.77-6.81-4.51-9.02c-3.3-2.65-5.66-6.34-6.7-10.41c0.58,0.15,1.18,0.23,1.79,0.23
		c0,0,0,0,0,0l34.06,0c0.6,0,1.19-0.07,1.76-0.22c-1.02,4.07-3.37,7.75-6.67,10.4c-2.75,2.21-4.38,5.47-4.52,9.02H36.99z
		 M46.2,50.01v-0.93h11.96c2.04,0,3.93-1.11,4.92-2.9c0.28-0.5,0.27-1.1-0.02-1.6c-0.29-0.49-0.8-0.79-1.38-0.79
		c-0.57,0-1.11,0.32-1.4,0.85c-0.43,0.77-1.25,1.25-2.12,1.25H46.2v-19.2c0-1.75,1.43-3.18,3.18-3.18c0.88,0,1.7,0.36,2.29,0.98
		c-0.8,0.46-1.52,1.07-2.11,1.78c-0.29,0.35-0.41,0.8-0.33,1.26c0.08,0.47,0.37,0.88,0.79,1.12c0.66,0.38,1.52,0.23,2.03-0.37
		c1.11-1.3,2.8-1.87,4.49-1.54c1.77,0.35,3.13,1.64,3.56,3.37c0.32,1.31,0.11,2.63-0.6,3.72c-0.7,1.08-1.82,1.82-3.08,2.05
		c-0.77,0.14-1.33,0.8-1.33,1.57c0,0.48,0.21,0.93,0.58,1.24c0.35,0.3,0.8,0.42,1.25,0.35c2.49-0.43,4.59-2,5.7-4.25
		c1.03,0.54,1.7,1.63,1.7,2.82c0,0.62-0.18,1.22-0.52,1.74c-0.7-0.23-1.44-0.34-2.18-0.34c-2.26,0-4.33,1.04-5.69,2.85
		c-0.3,0.4-0.4,0.9-0.28,1.38c0.12,0.47,0.43,0.85,0.87,1.05c0.68,0.32,1.5,0.11,1.98-0.53c0.9-1.19,2.37-1.76,3.87-1.49
		c1.53,0.28,2.77,1.48,3.09,3c0.25,1.19-0.04,2.4-0.78,3.32c-0.75,0.92-1.85,1.45-3.03,1.45H46.2z M23.74,45.24
		c0.32-1.52,1.57-2.73,3.1-3c1.48-0.26,2.96,0.31,3.85,1.49c0.48,0.63,1.29,0.85,1.98,0.53c0.44-0.2,0.75-0.59,0.87-1.05
		c0.12-0.48,0.02-0.98-0.28-1.38c-1.36-1.81-3.43-2.85-5.69-2.85c-0.75,0-1.48,0.11-2.18,0.34c-0.34-0.51-0.52-1.12-0.52-1.74
		c0-1.19,0.67-2.27,1.7-2.82c1.11,2.25,3.21,3.82,5.7,4.25c0.45,0.08,0.9-0.05,1.25-0.35c0.37-0.31,0.58-0.76,0.58-1.24
		c0-0.77-0.56-1.43-1.33-1.57c-1.22-0.22-2.33-0.94-3.03-1.98c-0.71-1.05-0.95-2.33-0.69-3.61c0.37-1.77,1.81-3.2,3.59-3.55
		c1.71-0.34,3.39,0.24,4.5,1.54c0.51,0.6,1.37,0.76,2.03,0.37c0.42-0.24,0.7-0.65,0.79-1.12c0.08-0.45-0.04-0.91-0.33-1.26
		c-0.59-0.71-1.31-1.31-2.11-1.78c0.66-0.68,1.59-1.04,2.55-0.97c1.64,0.13,2.92,1.6,2.92,3.34v19.03H31.04
		c-0.88,0-1.69-0.48-2.12-1.25c-0.29-0.52-0.83-0.85-1.4-0.85c-0.57,0-1.09,0.29-1.38,0.79c-0.29,0.5-0.3,1.09-0.02,1.6
		c0.99,1.79,2.88,2.9,4.92,2.9H43v0.93H27.55c-1.18,0-2.29-0.53-3.03-1.45C23.77,47.64,23.49,46.43,23.74,45.24z"/>
	<path class="st0" d="M52.94,33.44c1.98,0,3.84-1.06,4.85-2.77c0.3-0.5,0.3-1.1,0.01-1.6c-0.29-0.51-0.81-0.81-1.4-0.81
		c-0.56,0-1.08,0.3-1.38,0.8c-0.45,0.74-1.23,1.19-2.08,1.19H48.9c-0.88,0-1.6,0.72-1.6,1.6c0,0.88,0.72,1.6,1.6,1.6H52.94z"/>
	<path class="st0" d="M40.3,33.44c0.88,0,1.6-0.72,1.6-1.6c0-0.88-0.72-1.6-1.6-1.6h-4.04c-0.86,0-1.64-0.44-2.08-1.19
		c-0.3-0.5-0.82-0.8-1.39-0.8c-0.58,0-1.1,0.3-1.39,0.81c-0.29,0.51-0.28,1.1,0.01,1.6c1.01,1.71,2.87,2.77,4.85,2.77H40.3z"/>
</g>
</svg>
