<?xml version="1.0" encoding="utf-8"?>
<!-- Generator: Adobe Illustrator 23.0.0, SVG Export Plug-In . SVG Version: 6.00 Build 0)  -->
<svg version="1.1" id="Layer_1" xmlns="http://www.w3.org/2000/svg" xmlns:xlink="http://www.w3.org/1999/xlink" x="0px" y="0px"
	 viewBox="0 0 100.09 92.13" style="enable-background:new 0 0 100.09 92.13;" xml:space="preserve">
<g>
	<path d="M89.73,7.73C75.39-4.54,57.7-1.83,50.05,13.23C42.4-1.83,24.7-4.54,10.36,7.73C-8.2,23.6-5.66,71.8,50.05,92.13
		C105.75,71.8,108.29,23.6,89.73,7.73z M41.62,35.53c0.4,2.04-0.96,4.39-3.09,5.34c-1.21,0.54-1.66,1.42-1.22,2.41
		c0.44,0.98,1.47,1.35,2.62,0.75c0.93-0.48,1.72-1.21,2.61-1.77c0.42-0.27,0.93-0.57,1.4-0.57c1.56,0.02,2.79,0.79,3.79,1.94
		c0.18,0.2,0.23,0.57,0.23,0.87c0.01,11.41,0.01,22.83-0.01,34.24c0,0.4-0.24,0.9-0.54,1.19c-4.06,3.98-10.82,3.24-14-1.55
		c-0.38-0.57-0.8-0.84-1.45-0.98c-6.66-1.43-10.81-8.17-9.11-14.75c0.56-2.18,2.2-3.17,4.19-3.69c4.21-1.08,8.06,1.65,8.43,5.92
		c0.05,0.6-0.08,0.95-0.66,1.24c-1.7,0.84-3.16,2-4.23,3.59c-0.74,1.09-0.64,2.11,0.23,2.72c0.86,0.6,1.88,0.32,2.62-0.73
		c1.98-2.81,6.86-4.53,10.3-3.63c1.11,0.29,1.86,0.07,2.3-0.68c0.58-0.98,0.12-2.15-1.03-2.55c-1.81-0.63-3.68-0.61-5.55-0.32
		c-0.12,0.02-0.24,0.04-0.46,0.07c-0.06-0.27-0.13-0.53-0.18-0.79c-0.7-4.4-3.81-7.57-8.19-8.36c-1.86-0.33-2.95-2.19-2.38-4.04
		c0.8-2.59,3.73-3.53,5.86-1.86c0.2,0.15,0.37,0.34,0.57,0.49c0.79,0.62,1.81,0.56,2.44-0.14c0.6-0.67,0.61-1.7-0.07-2.37
		c-1.78-1.79-3.9-2.69-6.44-2.21c-4.68,0.88-7.18,5.62-5.33,10.02c0.05,0.11,0.09,0.23,0.09,0.24c-1.55,1.04-3.06,2.04-4.69,3.13
		c-0.01-0.01-0.23-0.17-0.42-0.35c-5.78-5.61-6.41-14.67-1.42-21.02c0.42-0.53,0.49-0.94,0.26-1.57c-1.88-5.2,0.06-11.02,4.66-14.08
		c0.25-0.17,0.52-0.31,0.86-0.51c1.54,4.01,4.01,7.13,8.04,8.86c-0.5,0.73-1.01,1.39-1.43,2.1c-0.87,1.47-1.37,3.07-1.4,4.79
		c-0.02,1.04,0.62,1.78,1.58,1.86c0.93,0.09,1.69-0.56,1.85-1.59c0.77-4.76,4.82-8.26,9.75-8.4c0.92-0.03,1.57-0.38,1.82-1.3
		c0.22-0.81-0.13-1.63-0.88-1.95c-0.36-0.15-0.78-0.2-1.18-0.2c-1.91,0-3.71,0.54-5.38,1.41c-0.91,0.48-1.75,0.51-2.69,0.27
		c-3.06-0.79-6.44-4.51-6.89-7.64c-0.05-0.31,0.05-0.68,0.18-0.98c3.46-7.83,14.39-9.13,19.58-2.33c0.23,0.3,0.39,0.73,0.39,1.1
		c0.02,7.2,0.02,14.41,0.01,21.61c0,0.12-0.02,0.25-0.04,0.44c-1-0.35-1.9-0.66-2.73-0.96c-0.05-1.14-0.01-2.29-0.19-3.41
		c-0.2-1.29-1.08-1.87-2.15-1.64C41.84,33.42,41.38,34.29,41.62,35.53z M80.32,57.87c-0.23,0.25-0.38,0.57-0.53,0.79
		c-1.31-1.66-2.45-3.12-3.68-4.67c0.07-0.09,0.23-0.34,0.41-0.58c2.97-3.99,2.4-9.21-1.37-12.45c-3.73-3.2-9.05-2.95-12.52,0.59
		c-0.79,0.81-0.85,1.87-0.15,2.58c0.7,0.72,1.72,0.7,2.58-0.09c1.53-1.4,3.24-2.22,5.37-1.7c4.43,1.07,5.95,6.27,2.83,9.58
		c-0.37,0.39-0.68,0.38-1.14,0.24c-2.99-0.94-5.96-0.82-8.9,0.25c-1.21,0.44-1.71,1.37-1.32,2.38c0.37,0.95,1.33,1.3,2.51,0.88
		c5.36-1.93,12.2,0.09,13.12,8.77c0.67,6.32-3.4,11.64-9.6,13.06c-0.44,0.1-0.92,0.48-1.18,0.87c-3.21,4.77-9.93,5.58-14.03,1.62
		c-0.33-0.32-0.57-0.9-0.58-1.36c-0.05-2.81-0.05-5.62-0.01-8.42c0.01-0.56,0.19-1.17,0.47-1.66c1.4-2.43,4.45-3.59,7.41-2.88
		c2.86,0.68,4.76,2.97,4.99,6.04c0.02,0.31,0.01,0.62,0.04,0.93c0.09,1,0.84,1.72,1.77,1.69c0.93-0.02,1.69-0.75,1.7-1.77
		c0.03-5.38-3.17-9.25-7.8-10.3c-2.75-0.63-5.39-0.23-7.84,1.22c-0.2,0.12-0.42,0.23-0.76,0.41c0-0.46,0-0.79,0-1.12
		c0-15.07,0.01-30.13-0.02-45.2c0-0.78,0.23-1.36,0.73-1.93c5.78-6.69,16.67-4.69,19.65,3.64c0.36,1.02,0.68,2.09,0.77,3.16
		c0.26,3.19-1.64,5.83-4.73,6.79c-3.06,0.94-6.01-0.18-7.66-2.93c-0.29-0.48-0.5-1-0.73-1.51c-0.47-1.03-1.41-1.47-2.35-1.07
		c-0.89,0.38-1.26,1.32-0.88,2.36c0.65,1.79,1.7,3.32,3.06,4.56c-1.12,0.88-2.17,1.69-3.2,2.54c-0.28,0.23-0.48,0.57-0.67,0.89
		c-0.43,0.73-0.29,1.51,0.37,1.88c0.71,0.4,1.35,0.23,1.79-0.43c0.74-1.11,1.79-1.8,2.98-2.32c1.04-0.46,2.07-0.64,3.25-0.38
		c5.67,1.21,12.49-2.93,12.3-10.16c0-0.15,0-0.31,0-0.62c0.32,0.23,0.54,0.36,0.74,0.53c3.77,3.21,5.19,8.5,3.49,13.17
		c-0.23,0.63-0.18,1.04,0.24,1.58C86.1,43.46,85.68,52.18,80.32,57.87z"/>
</g>
</svg>
