<?xml version="1.0" encoding="utf-8"?>
<!-- Generator: Adobe Illustrator 23.0.0, SVG Export Plug-In . SVG Version: 6.00 Build 0)  -->
<svg version="1.1" id="Layer_1" xmlns="http://www.w3.org/2000/svg" xmlns:xlink="http://www.w3.org/1999/xlink" x="0px" y="0px"
	 viewBox="0 0 100.09 92.13" style="enable-background:new 0 0 100.09 92.13;" xml:space="preserve">
<style type="text/css">
	.st0{fill:#010101;}
</style>
<g>
	<rect x="45.1" y="0" class="st0" width="3.19" height="15.35"/>
	
		<rect x="24.37" y="2.58" transform="matrix(0.9511 -0.309 0.309 0.9511 -1.8998 8.5265)" class="st0" width="3.19" height="15.35"/>
	
		<rect x="5.71" y="11.52" transform="matrix(0.8192 -0.5736 0.5736 0.8192 -9.6863 7.6646)" class="st0" width="3.19" height="15.35"/>
	
		<rect x="78.4" y="17.6" transform="matrix(0.5735 -0.8192 0.8192 0.5735 20.9897 78.7029)" class="st0" width="15.35" height="3.19"/>
	<rect x="59.75" y="8.66" transform="matrix(0.309 -0.951 0.951 0.309 36.8289 71.214)" class="st0" width="15.35" height="3.19"/>
	<rect x="45.1" y="76.77" class="st0" width="3.19" height="15.35"/>
	
		<rect x="18.29" y="80.27" transform="matrix(0.309 -0.9511 0.9511 0.309 -59.9152 81.2684)" class="st0" width="15.35" height="3.19"/>
	
		<rect x="-0.37" y="71.34" transform="matrix(0.5736 -0.8191 0.8191 0.5736 -56.6245 37.0877)" class="st0" width="15.35" height="3.19"/>
	
		<rect x="84.48" y="65.26" transform="matrix(0.8192 -0.5736 0.5736 0.8192 -26.265 62.5621)" class="st0" width="3.19" height="15.35"/>
	
		<rect x="65.83" y="74.19" transform="matrix(0.9511 -0.309 0.309 0.9511 -21.9974 24.8416)" class="st0" width="3.19" height="15.35"/>
	<path class="st0" d="M46.7,69.64c19.15,0,36.13-9.28,46.7-23.58c-10.57-14.3-27.55-23.58-46.7-23.58S10.57,31.76,0,46.06
		C10.57,60.36,27.55,69.64,46.7,69.64z M61.05,35.7c6.57,2.09,12.59,5.59,17.68,10.36c-5.09,4.77-11.11,8.27-17.68,10.36
		c2.11-2.92,3.37-6.49,3.37-10.36C64.41,42.19,63.16,38.62,61.05,35.7z M46.7,38.98c3.91,0,7.09,3.17,7.09,7.09
		s-3.17,7.09-7.09,7.09s-7.09-3.17-7.09-7.09S42.78,38.98,46.7,38.98z M32.34,35.7c-2.11,2.92-3.37,6.49-3.37,10.36
		c0,3.87,1.26,7.44,3.37,10.36c-6.57-2.09-12.59-5.59-17.68-10.36C19.75,41.3,25.78,37.79,32.34,35.7z"/>
</g>
</svg>
